<svg xmlns="http://www.w3.org/2000/svg" fill="none" viewBox="0 0 58 58" height="58" width="58">
<path fill="white" d="M29 0C12.9775 0 0 12.9775 0 29C0 41.8325 8.30125 52.6713 19.8287 56.5138C21.2787 56.7675 21.8225 55.8975 21.8225 55.1363C21.8225 54.4475 21.7863 52.1638 21.7863 49.735C14.5 51.0763 12.615 47.9587 12.035 46.3275C11.7087 45.4937 10.295 42.92 9.0625 42.2312C8.0475 41.6875 6.5975 40.3462 9.02625 40.31C11.31 40.2737 12.9413 42.4125 13.485 43.2825C16.095 47.6687 20.2638 46.4363 21.9313 45.675C22.185 43.79 22.9462 42.5212 23.78 41.7962C17.3275 41.0712 10.585 38.57 10.585 27.4775C10.585 24.3237 11.7088 21.7137 13.5575 19.6837C13.2675 18.9587 12.2525 15.9862 13.8475 11.9987C13.8475 11.9987 16.2763 11.2375 21.8225 14.9713C24.1425 14.3188 26.6075 13.9925 29.0725 13.9925C31.5375 13.9925 34.0025 14.3188 36.3225 14.9713C41.8688 11.2013 44.2975 11.9987 44.2975 11.9987C45.8925 15.9862 44.8775 18.9587 44.5875 19.6837C46.4363 21.7137 47.56 24.2875 47.56 27.4775C47.56 38.6062 40.7813 41.0712 34.3288 41.7962C35.38 42.7025 36.2863 44.4425 36.2863 47.1613C36.2863 51.04 36.25 54.1575 36.25 55.1363C36.25 55.8975 36.7938 56.8038 38.2438 56.5138C49.6988 52.6713 58 41.7962 58 29C58 12.9775 45.0225 0 29 0Z" clip-rule="evenodd" fill-rule="evenodd"></path>
</svg>
